<?xml version="1.0" encoding="UTF-8" standalone="no"?>
<svg
   viewBox="0 0 71.301664 99.999999"
   version="1.1"
   id="svg45"
   sodipodi:docname="Mines_Saint_Etienne_IMT_Logo_Ver_RVB_Noir.svg"
   inkscape:version="1.3.2 (091e20ef0f, 2023-11-25)"
   width="71.301666"
   height="100"
   xmlns:inkscape="http://www.inkscape.org/namespaces/inkscape"
   xmlns:sodipodi="http://sodipodi.sourceforge.net/DTD/sodipodi-0.dtd"
   xmlns="http://www.w3.org/2000/svg"
   xmlns:svg="http://www.w3.org/2000/svg">
  <sodipodi:namedview
     id="namedview45"
     pagecolor="#ffffff"
     bordercolor="#000000"
     borderopacity="0.25"
     inkscape:showpageshadow="2"
     inkscape:pageopacity="0.0"
     inkscape:pagecheckerboard="0"
     inkscape:deskcolor="#d1d1d1"
     inkscape:zoom="1.1416667"
     inkscape:cx="193.13869"
     inkscape:cy="276.35036"
     inkscape:window-width="1503"
     inkscape:window-height="933"
     inkscape:window-x="0"
     inkscape:window-y="0"
     inkscape:window-maximized="1"
     inkscape:current-layer="svg45" />
  <defs
     id="defs1">
    <style
       id="style1">.cls-1{fill:none;}.cls-1,.cls-2{stroke-width:0px;}.cls-3{stroke:#1d1d1b;stroke-miterlimit:10;stroke-width:2px;}.cls-3,.cls-2{fill:#1d1d1b;}</style>
  </defs>
  <g
     id="Logo"
     transform="matrix(0.18354012,0,0,0.18354012,-1.2370605,-4.3719257)">
    <polygon
       class="cls-2"
       points="32.08,533.48 32.08,437.52 128.03,437.52 "
       id="polygon1" />
    <polygon
       class="cls-2"
       points="223.99,533.48 128.03,533.48 128.03,437.52 176.01,485.5 223.99,437.52 "
       id="polygon2" />
    <polygon
       class="cls-2"
       points="271.97,485.5 223.99,485.5 271.97,437.52 367.92,437.52 271.97,533.48 "
       id="polygon3" />
    <path
       class="cls-2"
       d="m 36.71,547.22 v 21.04 h -4.63 v -21.04 z"
       id="path3" />
    <path
       class="cls-2"
       d="m 43.96,553.03 v 2.12 h 0.09 c 1.06,-1.77 2.88,-2.54 4.66,-2.54 4.68,0 5.57,2.83 5.57,6.28 v 9.37 H 50.1 v -8.61 c 0,-2.73 -0.83,-3.74 -2.68,-3.74 -2.44,0 -3.24,1.47 -3.24,4.36 v 7.99 H 40 v -15.24 h 3.98 z"
       id="path4" />
    <path
       class="cls-2"
       d="m 173.16,553.03 v 2.12 h 0.09 c 1.06,-1.77 2.88,-2.54 4.66,-2.54 4.68,0 5.57,2.83 5.57,6.28 v 9.37 h -4.18 v -8.61 c 0,-2.73 -0.83,-3.74 -2.68,-3.74 -2.44,0 -3.24,1.47 -3.24,4.36 v 7.99 h -4.18 v -15.24 h 3.98 z"
       id="path5" />
    <path
       class="cls-2"
       d="m 63.56,565.88 c 0.79,0 2.74,-0.29 2.74,-1.95 0,-0.63 -0.42,-1.1 -1.25,-1.41 -0.84,-0.31 -2,-0.63 -3.49,-0.94 -2.55,-0.57 -4.83,-1.42 -4.83,-4.07 0,-3.87 3.33,-4.89 6.63,-4.89 3.3,0 6.42,1.22 6.72,4.86 H 66.1 c -0.02,-1.66 -1.6,-2.06 -2.86,-2.06 -0.97,0 -2.33,0.18 -2.33,1.41 0,1.23 1.92,1.66 3.01,1.89 1.08,0.22 2.49,0.53 3.52,0.88 1.87,0.63 3.05,1.84 3.05,3.77 0,3.02 -2.1,5.28 -6.96,5.28 -3.76,0 -7.01,-1.44 -7.16,-5.33 h 3.98 c 0,1.99 1.87,2.56 3.21,2.56 z"
       id="path6" />
    <path
       class="cls-2"
       d="m 209.32,565.88 c 0.79,0 2.74,-0.29 2.74,-1.95 0,-0.63 -0.42,-1.1 -1.25,-1.41 -0.84,-0.31 -2,-0.63 -3.49,-0.94 -2.55,-0.57 -4.83,-1.42 -4.83,-4.07 0,-3.87 3.33,-4.89 6.63,-4.89 3.3,0 6.42,1.22 6.72,4.86 h -3.98 c -0.02,-1.66 -1.6,-2.06 -2.86,-2.06 -0.97,0 -2.33,0.18 -2.33,1.41 0,1.23 1.92,1.66 3.01,1.89 1.08,0.22 2.49,0.53 3.52,0.88 1.87,0.63 3.05,1.84 3.05,3.77 0,3.02 -2.1,5.28 -6.95,5.28 -3.76,0 -7.01,-1.44 -7.16,-5.33 h 3.98 c 0,1.99 1.88,2.56 3.21,2.56 z"
       id="path7" />
    <path
       class="cls-2"
       d="m 80.94,553.03 v 2.8 h -3.06 v 7.54 c 0,1.64 0.45,1.97 3.06,1.65 v 3.24 c -0.77,0.13 -1.6,0.15 -2.45,0.15 -2.67,0 -4.8,-0.58 -4.8,-3.6 v -8.99 h -2.53 v -2.8 h 2.53 v -4.57 h 4.18 v 4.57 h 3.06 z"
       id="path8" />
    <path
       class="cls-2"
       d="m 98.71,553.03 v 2.8 h -3.06 v 7.54 c 0,1.64 0.45,1.97 3.06,1.65 v 3.24 c -0.77,0.13 -1.6,0.15 -2.45,0.15 -2.67,0 -4.8,-0.58 -4.8,-3.6 v -8.99 h -2.53 v -2.8 h 2.53 v -4.57 h 4.18 v 4.57 h 3.06 z"
       id="path9" />
    <path
       class="cls-2"
       d="m 126.07,553.03 v 2.8 h -3.06 v 7.54 c 0,1.64 0.45,1.97 3.06,1.65 v 3.24 c -0.77,0.13 -1.6,0.15 -2.45,0.15 -2.67,0 -4.8,-0.58 -4.8,-3.6 v -8.99 h -2.53 v -2.8 h 2.53 v -4.57 H 123 v 4.57 h 3.06 z"
       id="path10" />
    <path
       class="cls-2"
       d="m 83.21,550.67 v -3.45 h 4.18 v 3.45 z m 4.19,2.36 v 15.24 h -4.18 v -15.24 z"
       id="path11" />
    <path
       class="cls-2"
       d="m 110.89,568.27 v -2.12 h -0.09 c -1.04,1.74 -2.87,2.5 -4.66,2.5 -3.87,0 -5.57,-1.78 -5.57,-6.25 v -9.37 h 4.18 v 8.61 c 0,2.39 0.59,3.74 2.68,3.74 2.57,0 3.24,-1.68 3.24,-4.36 v -7.99 h 4.18 v 15.24 h -3.98 z"
       id="path12" />
    <path
       class="cls-2"
       d="m 142.51,547.22 4.92,14.47 h 0.06 l 4.66,-14.47 h 6.51 v 21.04 h -4.33 v -14.91 h -0.06 l -5.16,14.91 h -3.57 l -5.16,-14.77 h -0.06 v 14.77 h -4.33 v -21.04 h 6.51 z"
       id="path13" />
    <path
       class="cls-2"
       d="m 162.05,550.67 v -3.45 h 4.19 v 3.45 z m 4.18,2.36 v 15.24 h -4.19 v -15.24 z"
       id="path14" />
    <path
       class="cls-2"
       d="m 193.49,565.52 c 1.79,0 3.05,-1.12 3.3,-1.97 h 3.68 c -1.1,3.42 -3.44,5.1 -7.13,5.1 -5.35,0 -7.78,-3.85 -7.78,-7.99 0,-4.89 3.47,-8.05 7.78,-8.05 5.08,0 7.72,4.23 7.4,9.05 h -10.99 c 0.12,2.84 1.53,3.86 3.74,3.86 z m -0.26,-9.75 c -2.2,0 -3.36,1.45 -3.48,3.24 h 6.81 c -0.36,-1.94 -1.17,-3.24 -3.33,-3.24 z"
       id="path15" />
    <path
       class="cls-2"
       d="m 251.46,565.52 c 1.79,0 3.05,-1.12 3.3,-1.97 h 3.68 c -1.1,3.42 -3.44,5.1 -7.13,5.1 -5.35,0 -7.78,-3.85 -7.78,-7.99 0,-4.89 3.47,-8.05 7.78,-8.05 5.08,0 7.72,4.23 7.4,9.05 h -10.99 c 0.12,2.84 1.53,3.86 3.74,3.86 z m -0.26,-9.75 c -2.2,0 -3.36,1.45 -3.48,3.24 h 6.81 c -0.36,-1.94 -1.17,-3.24 -3.33,-3.24 z"
       id="path16" />
    <path
       class="cls-2"
       d="m 275.27,565.52 c 1.79,0 3.05,-1.12 3.3,-1.97 h 3.68 c -1.1,3.42 -3.44,5.1 -7.13,5.1 -5.35,0 -7.78,-3.85 -7.78,-7.99 0,-4.89 3.47,-8.05 7.78,-8.05 5.08,0 7.72,4.23 7.4,9.05 h -10.99 c 0.12,2.84 1.53,3.86 3.74,3.86 z m -0.26,-9.75 c -2.2,0 -3.36,1.45 -3.48,3.24 h 6.81 c -0.36,-1.94 -1.17,-3.24 -3.33,-3.24 z"
       id="path17" />
    <path
       class="cls-2"
       d="m 229.29,558.49 v 3.53 h -8.87 v -3.53 z"
       id="path18" />
    <path
       class="cls-2"
       d="m 228.77,551.11 v -3.89 h 17.24 v 3.89 h -6.31 v 17.15 h -4.63 v -17.15 h -6.31 z"
       id="path19" />
    <path
       class="cls-2"
       d="m 265.34,547.22 v 21.04 h -4.18 v -21.04 z"
       id="path20" />
    <path
       class="cls-2"
       d="m 292.13,555.77 c -2.42,0 -3.57,2.31 -3.57,4.95 0,2.31 0.91,4.8 3.48,4.8 2.23,0 3.09,-1.48 3.33,-3.09 h 4.04 c -0.57,4.17 -3.43,6.22 -7.34,6.22 -4.76,0 -7.69,-3.39 -7.69,-7.78 0,-4.82 2.89,-8.25 7.78,-8.25 3.69,0 6.93,1.94 7.16,5.78 h -4.1 c -0.28,-1.75 -1.31,-2.62 -3.09,-2.62 z"
       id="path21" />
    <path
       class="cls-2"
       d="m 308.81,552.62 c 4.58,0 7.9,2.96 7.9,8.05 0,4.7 -2.94,7.99 -7.9,7.99 -4.96,0 -7.87,-3.47 -7.87,-7.99 0,-4.52 2.98,-8.05 7.87,-8.05 z m 0,12.9 c 2.54,0 3.71,-1.93 3.71,-4.86 0,-3.46 -1.61,-4.89 -3.71,-4.89 -2.1,0 -3.69,1.34 -3.69,4.89 0,2.63 0.98,4.86 3.69,4.86 z"
       id="path22" />
    <path
       class="cls-2"
       d="m 322.92,553.03 v 2.06 h 0.06 c 1.12,-1.6 2.69,-2.48 4.66,-2.48 2.12,0 3.74,0.84 4.45,2.54 0.98,-1.44 2.56,-2.54 4.6,-2.54 3.05,0 5.57,1.3 5.57,5.45 v 10.2 h -4.18 v -8.64 c 0,-1.85 -0.08,-3.71 -2.56,-3.71 -2.48,0 -2.8,2.01 -2.8,3.86 v 8.49 h -4.18 v -8.55 c 0,-1.98 0,-3.8 -2.54,-3.8 -0.78,0 -2.83,0.48 -2.83,3.51 v 8.84 h -4.18 v -15.24 h 3.95 z"
       id="path23" />
    <path
       class="cls-2"
       d="m 252.05,545.13 -3.12,5.22 h 2.92 l 4.8,-5.22 z"
       id="path24" />
    <path
       class="cls-2"
       d="m 275.86,545.13 -3.12,5.22 h 2.92 l 4.8,-5.22 z"
       id="path25" />
    <line
       class="cls-3"
       x1="96.809998"
       y1="392.06"
       x2="302.45001"
       y2="392.06"
       id="line25" />
    <path
       class="cls-2"
       d="m 46.9,342.98 c -6.69,0 -11.47,-1.59 -15.62,-5.89 l 4.46,-4.45 c 3.19,3.18 6.85,4.3 11.31,4.3 5.74,0 9.08,-2.55 9.08,-6.68 0,-1.91 -0.64,-3.5 -1.75,-4.61 -1.12,-1.11 -2.23,-1.43 -4.78,-1.91 l -5.26,-0.8 c -3.66,-0.48 -6.53,-1.75 -8.45,-3.5 -2.23,-2.07 -3.19,-4.77 -3.19,-8.43 0,-7.64 5.58,-13.05 14.82,-13.05 5.9,0 9.88,1.43 13.7,5.09 l -4.3,4.3 c -2.71,-2.55 -5.9,-3.34 -9.56,-3.34 -5.26,0 -8.13,3.02 -8.13,6.84 0,1.59 0.48,3.02 1.75,4.14 1.12,0.95 2.87,1.75 4.94,2.07 l 5.1,0.8 c 4.14,0.64 6.37,1.59 8.29,3.34 2.39,2.07 3.66,5.25 3.66,9.07 C 62.81,338.22 56.12,343 46.88,343 Z"
       id="path26" />
    <path
       class="cls-2"
       d="m 84.98,342.66 v -2.86 c -2.23,2.23 -4.46,3.18 -8.45,3.18 -3.99,0 -6.53,-0.95 -8.45,-2.86 -1.59,-1.75 -2.55,-4.14 -2.55,-6.84 0,-5.25 3.66,-9.07 10.84,-9.07 h 8.29 v -2.07 c 0,-3.98 -1.91,-5.89 -6.85,-5.89 -3.51,0 -5.1,0.8 -6.85,3.02 l -4.14,-3.98 c 3.03,-3.5 6.06,-4.45 11.31,-4.45 8.6,0 13.07,3.66 13.07,10.82 v 21 h -6.21 z m -0.16,-14 h -7.33 c -3.66,0 -5.58,1.75 -5.58,4.45 0,2.86 1.75,4.45 5.74,4.45 2.39,0 4.3,-0.16 5.9,-1.75 0.96,-0.95 1.43,-2.39 1.43,-4.61 l -0.16,-2.55 v 0 z"
       id="path27" />
    <path
       class="cls-2"
       d="m 97.57,304.95 v -6.68 h 6.69 v 6.68 z m 0.16,37.71 v -31.5 h 6.37 v 31.5 z"
       id="path28" />
    <path
       class="cls-2"
       d="m 130.24,342.66 v -19.25 c 0,-4.93 -2.87,-7 -6.37,-7 -3.5,0 -6.53,2.23 -6.53,7 v 19.25 h -6.37 v -31.5 h 6.21 v 3.18 c 2.23,-2.39 5.26,-3.5 8.45,-3.5 3.19,0 5.9,1.11 7.81,2.86 2.39,2.39 3.19,5.41 3.19,8.91 v 20.05 h -6.37 z"
       id="path29" />
    <path
       class="cls-2"
       d="m 152.7,342.66 c -5.9,0 -8.6,-4.3 -8.6,-8.75 v -17.34 h -3.66 v -4.77 h 3.66 v -9.55 h 6.37 v 9.55 h 6.06 v 4.77 h -6.06 v 17.02 c 0,2.23 1.12,3.66 3.51,3.66 h 2.55 v 5.41 h -3.82 z"
       id="path30" />
    <path
       class="cls-2"
       d="m 160.51,328.34 v -5.89 h 18.17 v 5.89 z"
       id="path31" />
    <path
       class="cls-2"
       d="m 185.53,342.66 v -44.23 h 28.2 v 6.05 h -21.51 v 12.89 h 18.32 v 5.89 h -18.32 v 13.21 h 21.51 v 6.05 l -28.2,0.16 v 0 z m 15.14,-48.53 h -4.78 l 4.62,-10.02 h 7.01 z"
       id="path32" />
    <path
       class="cls-2"
       d="m 228.55,342.66 c -5.9,0 -8.6,-4.3 -8.6,-8.75 v -17.34 h -3.66 v -4.77 h 3.66 v -9.55 h 6.37 v 9.55 h 6.06 v 4.77 h -6.06 v 17.02 c 0,2.23 1.12,3.66 3.51,3.66 h 2.55 v 5.41 h -3.82 z"
       id="path33" />
    <path
       class="cls-2"
       d="m 237.16,304.95 v -6.68 h 6.69 v 6.68 z m 0.15,37.71 v -31.5 h 6.37 v 31.5 z"
       id="path34" />
    <path
       class="cls-2"
       d="m 255.32,328.66 c 0,5.41 2.87,8.75 7.97,8.75 3.51,0 5.42,-0.95 7.65,-3.18 l 3.98,3.82 c -3.19,3.18 -6.21,4.93 -11.79,4.93 -7.97,0 -14.18,-4.14 -14.18,-16.07 0,-10.18 5.26,-16.07 13.38,-16.07 8.12,0 13.38,6.2 13.38,15.11 v 2.86 l -20.4,-0.16 v 0 z m 13.23,-8.59 c -0.96,-2.39 -3.19,-3.98 -6.21,-3.98 -3.02,0 -5.26,1.59 -6.21,3.98 -0.64,1.43 -0.8,2.39 -0.8,4.3 h 14.18 c -0.16,-1.91 -0.32,-2.86 -0.96,-4.3 z"
       id="path35" />
    <path
       class="cls-2"
       d="m 300.26,342.66 v -19.25 c 0,-4.93 -2.87,-7 -6.37,-7 -3.5,0 -6.53,2.23 -6.53,7 v 19.25 h -6.37 v -31.5 h 6.21 v 3.18 c 2.23,-2.39 5.26,-3.5 8.45,-3.5 3.19,0 5.9,1.11 7.81,2.86 2.39,2.39 3.19,5.41 3.19,8.91 v 20.05 h -6.37 z"
       id="path36" />
    <path
       class="cls-2"
       d="m 332.44,342.66 v -19.25 c 0,-4.93 -2.87,-7 -6.37,-7 -3.5,0 -6.53,2.23 -6.53,7 v 19.25 h -6.37 v -31.5 h 6.21 v 3.18 c 2.23,-2.39 5.26,-3.5 8.45,-3.5 3.19,0 5.9,1.11 7.81,2.86 2.39,2.39 3.19,5.41 3.19,8.91 v 20.05 h -6.37 z"
       id="path37" />
    <path
       class="cls-2"
       d="m 349.97,328.66 c 0,5.41 2.87,8.75 7.97,8.75 3.51,0 5.42,-0.95 7.65,-3.18 l 3.98,3.82 c -3.19,3.18 -6.21,4.93 -11.79,4.93 -7.97,0 -14.18,-4.14 -14.18,-16.07 0,-10.18 5.26,-16.07 13.38,-16.07 8.12,0 13.38,6.2 13.38,15.11 v 2.86 l -20.4,-0.16 v 0 z m 13.39,-8.59 c -0.96,-2.39 -3.19,-3.98 -6.21,-3.98 -3.02,0 -5.26,1.59 -6.21,3.98 -0.64,1.43 -0.8,2.39 -0.8,4.3 h 14.18 c -0.16,-1.91 -0.32,-2.86 -0.96,-4.3 z"
       id="path38" />
    <path
       class="cls-2"
       d="M 135.18,102.9 237,49.44 247.84,43.71 c -0.32,-0.16 -0.48,-0.32 -0.8,-0.48 -1.27,-0.64 -3.51,-1.75 -6.37,-3.02 -4.14,-1.91 -9.4,-3.98 -13.54,-4.77 h -0.32 c -0.16,0 -16.25,-3.34 -25.65,-3.34 -52.74,0 -95.61,40.73 -95.61,91.16 0,7 0.8,13.84 2.39,20.52 l -101.2,77.96 107.4,-60.62 v 0.16 c 1.27,2.7 2.71,5.25 4.14,7.8 l -66.92,53.93 78.56,-38.82 v 0 l 8.92,-7.95 55.61,-49.64 -64.69,36.12 c -6.37,-11.77 -10.04,-25.3 -10.04,-39.46 0,-45.34 36.49,-82.09 81.42,-82.09 5.58,0 10.84,0.64 16.09,1.59 v 0 l -82.06,60.14 z"
       id="path39" />
    <polygon
       class="cls-2"
       points="251.18,47.21 171.98,110.85 268.23,58.67 302.49,23.82 "
       id="polygon39" />
    <path
       class="cls-2"
       d="M 294.04,102.26 395.22,23.82 287.66,84.75 c 0,0.16 0.16,0.32 0.16,0.48 0,-0.16 -0.16,-0.32 -0.16,-0.48 v 0 c -1.27,-2.7 -2.87,-5.41 -4.46,-7.95 l 63.58,-52.18 -74.89,37.55 -1.12,0.48 -7.97,7 -55.77,48.52 65.17,-34.68 c 6.37,11.77 10.2,25.3 10.2,39.62 0,45.34 -36.49,82.09 -81.42,82.09 -5.58,0 -10.84,-0.64 -16.09,-1.59 l 81.27,-61.73 -101.02,54.89 -10.68,5.89 c 0,0 0.16,0 0.16,0.16 6.37,3.34 13.23,6.05 20.4,7.95 h 0.32 c 8.13,2.23 16.73,3.34 25.65,3.34 52.74,0 95.61,-40.73 95.61,-91.16 0,-7.32 -0.96,-14.64 -2.71,-21.48 0,0.64 0.16,0.8 0.16,0.8 z"
       id="path40" />
    <polygon
       class="cls-2"
       points="98.05,223.49 149.68,200.11 158.28,192.95 231.42,133.13 143.78,181.49 133.1,187.38 "
       id="polygon40" />
    <path
       class="cls-2"
       d="m 156.53,232.24 c 1.91,17.98 3.98,35.8 5.9,49.64 -1.27,0 -2.39,-0.16 -3.35,-0.16 -1.12,0 -2.39,0.16 -3.35,0.16 -1.27,-14.64 -2.71,-30.23 -3.66,-37.55 -8.45,15.11 -14.66,26.73 -19.12,36.75 h -0.8 l -3.98,-8.27 c -4.62,-9.55 -9.72,-19.09 -14.66,-28.48 -1.59,14.16 -3.51,28.48 -3.51,37.55 -0.96,0 -1.75,-0.16 -2.55,-0.16 -0.96,0 -1.75,0.16 -2.55,0.16 1.91,-11.77 6.21,-42 7.01,-49.64 h 1.91 c 5.9,11.61 12.75,25.14 20.56,38.02 6.85,-12.41 13.54,-25.14 21.03,-38.02 z"
       id="path41" />
    <path
       class="cls-2"
       d="m 169.27,232.24 c 0.96,0 2.07,0.16 3.19,0.16 0.96,0 2.07,-0.16 3.19,-0.16 v 49.64 c -1.12,0 -2.23,-0.16 -3.19,-0.16 -1.12,0 -2.23,0.16 -3.19,0.16 z"
       id="path42" />
    <path
       class="cls-2"
       d="m 228.55,281.88 h -2.23 c -0.8,-0.95 -2.23,-2.7 -3.82,-4.45 l -31.39,-34.68 h -0.8 v 39.14 c -0.8,0 -1.43,-0.16 -2.07,-0.16 -0.8,0 -1.43,0.16 -2.07,0.16 v -49.64 h 2.87 l 34.58,37.39 h 0.8 v -37.39 c 0.64,0 1.27,0.16 2.07,0.16 0.64,0 1.27,-0.16 2.07,-0.16 v 49.64 0 z"
       id="path43" />
    <path
       class="cls-2"
       d="M 243.69,253.88 H 255 c 2.23,0 4.3,-0.32 6.53,-0.32 0,0.64 -0.16,1.27 -0.16,1.91 0,0.64 0.16,1.27 0.16,2.07 -2.23,0 -4.3,-0.32 -6.53,-0.32 h -11.31 v 21.16 c 4.46,0.16 8.76,-0.16 13.23,-0.32 2.23,0 4.46,-0.32 6.69,-0.64 0,0.8 -0.16,1.43 -0.16,2.23 0,0.8 0.16,1.43 0.16,2.23 H 237.32 V 232.4 h 25.81 c 0,0.8 -0.16,1.43 -0.16,2.23 0,0.8 0.16,1.43 0.16,2.23 -2.23,-0.48 -4.3,-0.64 -6.53,-0.8 l -7.33,-0.16 h -5.58 z"
       id="path44" />
    <path
       class="cls-2"
       d="m 269.5,272.18 c 2.87,4.61 6.06,7.64 11.79,7.64 5.73,0 10.04,-4.93 10.04,-10.66 0,-13.52 -22.79,-7.64 -22.79,-24.02 0,-9.39 7.49,-14 16.09,-14 3.51,0 7.65,1.11 10.36,3.5 -0.8,1.91 -1.43,3.98 -1.91,5.89 h -0.8 c -1.59,-3.98 -4.78,-6.36 -9.08,-6.36 -5.1,0 -9.24,3.34 -9.24,8.43 0,13.36 22.95,7.95 22.95,23.55 0,10.34 -8.13,16.55 -18.01,16.55 -3.51,0 -9.4,-1.59 -11.79,-4.14 0.8,-2.07 1.12,-4.3 1.43,-6.52 h 0.96 v 0.16 z"
       id="path45" />
  </g>
</svg>
