<?xml version="1.0" encoding="UTF-8" standalone="no"?>
<svg
   width="74.249634mm"
   height="50.652809mm"
   version="1.1"
   viewBox="0 0 74.249634 50.652809"
   xml:space="preserve"
   id="svg1"
   sodipodi:docname="psikopat.svg"
   inkscape:version="1.3.2 (091e20ef0f, 2023-11-25)"
   inkscape:export-filename="psikopat.svg"
   inkscape:export-xdpi="96"
   inkscape:export-ydpi="96"
   xmlns:inkscape="http://www.inkscape.org/namespaces/inkscape"
   xmlns:sodipodi="http://sodipodi.sourceforge.net/DTD/sodipodi-0.dtd"
   xmlns="http://www.w3.org/2000/svg"
   xmlns:svg="http://www.w3.org/2000/svg"><defs
     id="defs1" /><sodipodi:namedview
     id="namedview1"
     pagecolor="#ffffff"
     bordercolor="#000000"
     borderopacity="0.25"
     inkscape:showpageshadow="2"
     inkscape:pageopacity="0.0"
     inkscape:pagecheckerboard="0"
     inkscape:deskcolor="#d1d1d1"
     inkscape:document-units="mm"
     inkscape:zoom="2.5478395"
     inkscape:cx="71.629316"
     inkscape:cy="70.059358"
     inkscape:window-width="1503"
     inkscape:window-height="933"
     inkscape:window-x="0"
     inkscape:window-y="0"
     inkscape:window-maximized="1"
     inkscape:current-layer="svg1" /><path
     d="m 35.524832,50.555782 c -0.09667,-0.09659 -0.0099,-0.41245 0.19267,-0.70175 1.0675,-1.5241 0.02178,-2.1929 -3.8671,-2.4735 -5.4657,-0.39433 -9.4804,-1.3384 -14.126,-3.3218 -6.4976,-2.7739 -16.5510001,-8.0901 -17.67200012,-18.193 -0.49054,-4.4201 2.61730002,-9.0521 2.89490002,-9.4555 1.7457,-2.5181 3.6803,-4.4422 6.1966,-6.1193 0.053323,-0.04082 -0.088165,-0.3567601 -0.31441,-0.7020501 -0.90441,-1.7865 -0.47427,-3.5552 0.77396,-5.0139 l 0.31456,1.3113 c 0.2404701,1.0024 0.4755101,1.3945 0.9978601,1.6646 4.4224,2.2869 17.434,-6.7381 23.218,-3.8099 l 1.1512,0.58283 -0.13472,-0.8302 c -0.2217,-1.3662 0.32308,-2.257 1.8316,-2.9951 1.5802,-0.77312 2.0355,-0.65182 1.4929,0.39764 -0.50094,0.96868 -0.47576,1.6974 0.06379,1.8475 0.53351,0.14852 9.6869,0.74649 15.532,3.5598 1.8608,0.89563 3.6467,2.3601 4.6777,3.8359001 l 0.91311,1.307 v -0.94277 c 0,-2.9477001 3.0604,-4.8194001 6.0902,-3.7247001 1.1233,0.40587 1.2991,0.90678 0.31839,0.90678 -1.1052,0 -2.547,0.68702 -2.8535,1.3597 -1.1952,2.6231001 6.8171,6.3018001 9.5421,11.8010001 2.3292,4.7005 1.993,7.492 -1.4581,12.108 -6.5641,8.605 -18.072,12.974 -28.675,13.574 -2.9823,0.01617 -3.5018,-0.04405 -4.2671,-0.49376 -1.1172,-0.65632 -1.7485,-1.7503 -1.9392,-3.3605 -0.27657,-2.3352 0.23218,-3.9713 3.6842,-11.848 0.96966,-2.2126 1.1095,-2.9623 1.1252,-6.0316 0.01495,-2.9273 0.03793,-2.9644 2.105,-3.3986 1.699,-0.35685 0.08864,0.9164 1.0526,0.64693 2.7315,-0.76358 4.2377,0.43745 4.3018,3.4302 0.02471,1.1531 0.03403,1.168 0.22511,0.35927 0.74114,-3.1362 2.7015,-4.5094 5.1106,-3.5799 0.956,0.36885 0.92686,0.38792 0.92686,-0.60716 -0.05922,-2.8984 -3.5376,-1.4521 -5.1694,-0.97898 -3.4268,1.0181 -6.0042,0.7967 -6.3932,-0.74578 -0.15729,-0.62359 -0.23084,-0.77718 -0.46541,0.1176 -0.24176,0.92212 -1.7904,1.4274 -4.3723,1.6376 -3.4605,0.2934 -5.725,1.2251 -8.1042,3.6044 l 0.73204,0.76409 c 0.85662,0.89414 3.824,2.9762 5.324,3.7357 1.2206,0.61797 2.0989,1.6347 2.0989,2.4297 0,1.3513 -2.3386,2.8871 -3.6418,2.3916 -1.6277,-0.61884 0.82724,-1.4431 0.49595,-2.3065 -0.11107,-0.28946 -2.8643,-1.7608 -5.5087,-2.944 -0.12995,-0.05819 -0.14314,0.10265 -0.03051,0.37216 0.51626,1.236 0.45429,1.5717 -0.38436,2.0817 -1.2158,0.73935 -2.0707,0.04708 -2.6719,-1.2824 -1.1189,-2.4745 -1.0925,-2.4286 -0.91195,-1.5872 0.0885,0.41245 0.1704,1.6206 0.18198,2.6848 0.05529,5.0976 -3.9583,4.2001 -4.8779,2.739 -0.2519,-0.47069 -0.20337,-0.51419 0.57365,-0.51419 1.1361,0 1.4782,-0.74798 1.2669,-2.7696 -0.14844,-1.4202 -0.58885,-2.1401 -0.58885,-0.96259 0,0.29912 -0.2798,1.0213 -0.62177,1.6048 -0.85562,1.46 -2.1221,1.9581 -4.4062,1.7331 -2.4377,-0.24019 -3.453,0.47986 -2.3676,1.6792 0.53722,0.5936 0.249,0.9791 -0.7312,0.97795 -1.8275,-0.002 -3.3774,-1.8571 -2.6646,-3.189 1.6569,-3.0959 5.9864,-1.4219 7.1476,-3.1942 0.49485,-0.75524 0.26938,-1.377 -1.2615,-3.4789 -0.6336,-0.86993 -1.2163,-1.8364 -1.2948,-2.1476 -0.20235,-0.80193 -0.59133,-0.70252 -0.59133,0.15114 0,2.523 -2.9938,6.5437 -6.1106001,8.2066 -0.51274,0.27355 -0.93225,0.58815 -0.93225,0.6991 5.8017001,7.8978 17.1490001,10.89 25.9450001,11.999 2.0257,0.25535 3.4641,0.98917 4.2456,1.7829 0.83141,0.84431 0.46447,2.1986 -0.57424,2.9252 -0.8688,0.58356 -2.4684,0.98553 -2.7603,0.69365 z m 9.1131,-6.2578 c 6.7341,-1.6172 12.625,-3.4728 17.945,-8.042 1.4496,-1.2457 1.7608,-1.374 0.33746,-0.77928 -2.0531,0.85786 -3.1071,0.17337 -3.4223,-2.2225 -0.12476,-0.94839 -0.21762,-1.1586 -0.34647,-0.78415 -0.23652,0.68724 -1.4548,1.375 -2.4357,1.375 -0.7861,0 -2.0371,-0.94065 -2.3,-1.7295 -0.09269,-0.27808 -0.3535,-0.25606 -1.4096,0.11902 -1.2088,0.42933 -1.3533,0.43282 -2.1516,0.05213 -1.0053,-0.47938 -1.6049,-1.5957 -2.0008,-3.7249 l -0.27639,-1.4862 -0.44244,1.3069 c -0.80547,2.3793 -3.0191,3.6857 -4.2925,2.5332 -0.4322,-0.39114 -0.47852,-0.35988 -0.8383,0.56594 -0.20945,0.53899 -0.56203,1.3195 -0.78351,1.7346 -0.98169,1.8395 -2.6437,7.0776 -2.6466,8.3412 -0.0028,1.3167 0.51409,2.7008 1.0967,2.9352 0.61055,0.24565 2.5912,0.14852 3.9669,-0.19459 z m 22.109,-12.465 c 0.77302,-1.4799 1.4928,-4.055 1.6697,-5.9739 0.16759,-1.8173 -0.04334,-2.3326 -0.51495,-1.2576 -0.31175,0.71058 -1.602,1.1611 -3.3924,1.1844 -0.76088,0.0101 -1.5077,0.10123 -1.6597,0.20285 -0.3214,0.21498 -0.66198,4.7373 -0.44025,5.8459 0.08937,0.44664 0.30878,0.75289 0.5395,0.75289 0.54667,0 1.3089,-0.74645 1.3089,-1.2818 0,-0.6504 0.48835,-0.85297 0.94807,-0.39324 0.42578,0.42577 0.5332,1.7351 0.20965,2.5554 -0.30116,0.76352 0.75801,-0.53709 1.3315,-1.6349 z m -8.5713,-1.1974 c 0.0958,-0.6715 0.67193,-0.7403 1.0314,-0.12326 0.19859,0.34098 0.25811,0.15054 0.26403,-0.84526 0.01374,-2.3189 -0.26041,-3.6194 -0.76317,-3.6194 -0.248,0 -0.6149,-0.16408 -0.81534,-0.36444 -0.31824,-0.31823 -0.38038,-0.26242 -0.49017,0.44018 -0.06911,0.44254 -0.14563,1.8045 -0.16998,3.0265 -0.04021,2.0182 -0.0028,2.214 0.40932,2.1355 0.24946,-0.04749 0.48974,-0.33999 0.53394,-0.64986 z m -48.9550001,-14.691 c -6.5754,8.1736 -2.9753,13.625 -2.9421,13.625 2.548,0 8.4280001,-8.4713 2.9421,-13.625 z m 44.1970001,12.581 c 0.5022,-1.4406 0.27294,-3.7354 -0.37318,-3.7354 -0.53325,0 -0.85987,0.85992 -0.85987,2.2638 0,2.0967 0.71688,2.9523 1.233,1.4717 z m -7.8257,-2.4567 c -0.18929,-4.1933 -1.8405,0.33341 -0.92021,2.053 0.43475,0.81238 1.0189,0.13377 0.92021,-2.0531 z m -21.966,-4.2971 c 1.015,0 1.1581,0.18529 1.5544,2.0122 l 0.30003,1.3834 0.0211,-2.2098 c 0.02025,-2.1234 0.002,-2.1994 -0.47437,-1.9446 -2.1378,0.7088 -5.9134,-0.90666 -4.9197,2.7493 0.5523,1.6628 1.224,1.7611 1.8565,2.9136 0.41255,0.75176 0.8271,2.1434 0.47726,-1.5086 -0.1508,-1.1715 -0.50537,-3.3634 1.1848,-3.3957 z m 35.214,1.2576 c 0.4048,0 0.43473,-0.16024 0.28206,-1.5097 -0.30015,-2.6529 -1.1204,-5.3362 -2.4452,-7.9985 -2.9328,-6.0025001 -10.936,-7.2046001 -16.985,-7.7109001 -1.1299,-0.079613 -2.4562,-0.31276 -2.9474,-0.51799 -0.49118,-0.20522 -0.92798,-0.37313 -0.97067,-0.37313 -0.04268,0 -0.03461,0.45109 0.01798,1.0024 0.1057,1.1083 -0.35318,2.0457 -2.5146,5.1367001 -4.3222,6.1809 -4.2946,10.736 -4.1714,10.859 0.06207,0.06203 0.40982,-0.12083 0.77276,-0.40623 2.1287,-1.6744 8.4053,-2.1678 9.6668,-2.5495 1.9149,-0.57938 -0.18865,-1.8631 -0.18865,-2.2596 0,-0.71874 2.9121,0.63598 3.4093,1.3396 0.42779,0.60541 0.54844,0.51826 0.9543,-0.29752 0.44642,-0.75574 2.0478,-1.7577 2.8093,-1.7577 0.36474,0 0.36566,0.05132 0.0099,0.55903 -0.21537,0.30746 -0.39156,0.8734 -0.39156,1.2576 0,0.65822 0.06418,0.69864 1.1095,0.69864 1.2591,0 7.2427,-1.9208 8.9285,-1.0186 0.88744,0.47495 1.2809,1.7631 1.2809,4.1936 0,2.1009 0.01758,2.169 0.45998,1.7688 0.25299,-0.22894 0.66378,-0.41627 0.91285,-0.41627 z m 7.3654,-0.55986 c 0.18048,-0.14589 0.2485,-0.50522 0.16139,-0.85235 -0.19827,-0.78991 0.47799,-0.81707 1.0216,-0.04102 0.80908,1.1551 0.35326,0.06385 -0.53778,-1.2876 -1.1684,-1.772 -6.233,-6.9632 -5.8936,-6.0409 0.79855,2.8975 1.4209,5.8484 1.8299,8.8268 l 1.5533,-0.1764 c 0.8543,-0.09699 1.6937,-0.28982 1.8653,-0.42858 z m -45.122,-4.2822 c 2.3954,0.31657 2.7471,0.16226 2.6335,-1.1554 -0.04169,-0.48372 0.04027,-0.91816 0.18206,-0.96542 0.35672,-0.11902 2.0591,1.6934 2.1695,2.3096 0.05524,0.30845 0.38929,-0.32403 0.86347,-1.635 0.68653,-1.8981 2.4389,-4.8535 4.7637,-8.0341001 1.2675,-1.7341 1.0564,-3.2887 -0.44553,-3.2801 -1.5675,0.00808 -6.3469,1.4081 -9.2492,2.7075 -6.0984,2.7305001 -7.9832,3.3736001 -9.6161,3.2811001 -0.79873,-0.04526 -1.452,-0.06769 -1.4518,-0.04991 2.5e-4,0.01819 0.72051,0.76688 1.6006,1.6644 1.9662,2.0053 2.887,3.8171 3.2482,6.3914 0.24775,1.7656 0.29654,1.8798 0.51536,1.2069 0.87387,-2.5279 2.2287,-2.7343 4.7861,-2.4412 z m 14.082,10.467 c -1.935,-1.2546 -2.3511,-3.1005 -1.0962,-4.8628 0.83731,-1.1759 1.849,-1.5899 3.5795,-1.4647 1.2511,0.09053 1.604,0.23021 2.2739,0.9001 1.0388,1.0388 1.4519,3.4969 0.27734,4.6823 -1.513,1.527 -3.3984,1.806 -5.0346,0.74507 z m 3.1906,-2.3649 c 0.36368,-0.67952 0.10631,-1.4119 -0.55714,-1.5854 -0.66666,-0.17438 -1.4602,0.22775 -1.4602,0.7399 0,1.2562 1.4682,1.8715 2.0173,0.84548 z"
     stroke-width="0.95067"
     id="path1"
     style="fill:#dc8add" /></svg>
