<?xml version="1.0" encoding="UTF-8" standalone="no"?>
<svg
   viewBox="0 0 511.85214 24.649872"
   width="25.592607"
   height="24.649872"
   fill="var(--accent-color)"
   version="1.1"
   id="svg1"
   xmlns="http://www.w3.org/2000/svg"
   xmlns:svg="http://www.w3.org/2000/svg">
  <defs
     id="defs1" />
  <!--!Font Awesome Free 6.6.0 by @fontawesome - https://fontawesome.com License - https://fontawesome.com/license/free Copyright 2024 Fonticons, Inc.-->
  <path
     d="m 503.50447,-39.076341 -0.7,-1.8 -69.7,-181.799999 c -1.4,-3.5 -3.9,-6.6 -7.2,-8.6 -2.4,-1.6 -5.1,-2.5 -8,-2.8 -2.9,-0.3 -5.7,0.1 -8.4,1.1 -2.7,1 -5.1,2.6 -7.1,4.8 -1.9,2.1 -3.3,4.6 -4.1,7.4 l -47,143.999999 h -190.5 l -47.1,-143.999999 c -0.8,-2.8 -2.2,-5.3 -4.1,-7.4 -2,-2.1 -4.4,-3.8 -7.1,-4.8 -2.599997,-1 -5.499997,-1.4 -8.399997,-1.1 -2.8,0.3 -5.6,1.2 -8,2.8 -3.3,2 -5.8,5.1 -7.2,8.6 l -69.6000001,181.799999 -0.8,1.8 c -10,26.2 -11.2,55 -3.5,82 7.8000001,26.9 24.1000001,50.7 46.5000001,67.600001 l 0.2,0.2 0.6,0.4 105.999997,79.5 52.6,39.7 32,24.2 c 3.7,1.9 8.3,4.3 13,4.3 4.7,0 9.3,-2.4 13,-4.3 l 32,-24.2 52.6,-39.7 106.7,-79.9 0.3,-0.3 c 22.4,-16.900001 38.7,-40.600001 45.6,-67.500001 8.6,-27 7.4,-55.8 -2.6,-82 z"
     id="path1"
     style="fill:#dc8add" />
</svg>
