<?xml version="1.0" encoding="UTF-8" standalone="no"?>
<svg
   viewBox="0 0 448 448.00001"
   version="1.1"
   id="svg1"
   width="448"
   height="448"
   xmlns="http://www.w3.org/2000/svg"
   xmlns:svg="http://www.w3.org/2000/svg">
  <defs
     id="defs1" />
  <!--!Font Awesome Free 6.6.0 by @fontawesome - https://fontawesome.com License - https://fontawesome.com/license/free Copyright 2024 Fonticons, Inc.-->
  <path
     d="M 416,0 H 31.9 C 14.3,0 0,14.5 0,32.3 V 415.7 C 0,433.5 14.3,448 31.9,448 H 416 c 17.6,0 32,-14.5 32,-32.3 V 32.3 C 448,14.5 433.6,0 416,0 Z M 135.4,384 H 69 V 170.2 h 66.5 V 384 Z M 102.2,141 C 80.9,141 63.7,123.7 63.7,102.5 63.7,81.3 80.9,64 102.2,64 c 21.2,0 38.5,17.3 38.5,38.5 0,21.3 -17.2,38.5 -38.5,38.5 z M 384.3,384 H 317.9 V 280 c 0,-24.8 -0.5,-56.7 -34.5,-56.7 -34.6,0 -39.9,27 -39.9,54.9 V 384 H 177.1 V 170.2 h 63.7 v 29.2 h 0.9 c 8.9,-16.8 30.6,-34.5 62.9,-34.5 67.2,0 79.7,44.3 79.7,101.9 z"
     id="path1"
     style="fill:#DC8ADD" />
</svg>
