<?xml version="1.0" encoding="UTF-8" standalone="no"?>
<svg
   viewBox="0 0 512 384.00001"
   version="1.1"
   id="svg1"
   width="512"
   height="384"
   xmlns="http://www.w3.org/2000/svg"
   xmlns:svg="http://www.w3.org/2000/svg">
  <defs
     id="defs1" />
  <!--!Font Awesome Free 6.6.0 by @fontawesome - https://fontawesome.com License - https://fontawesome.com/license/free Copyright 2024 Fonticons, Inc.-->
  <path
     d="M 48,0 C 21.5,0 0,21.5 0,48 0,63.1 7.1,77.3 19.2,86.4 l 217.6,163.2 c 11.4,8.5 27,8.5 38.4,0 L 492.8,86.4 C 504.9,77.3 512,63.1 512,48 512,21.5 490.5,0 464,0 Z M 0,112 v 208 c 0,35.3 28.7,64 64,64 h 384 c 35.3,0 64,-28.7 64,-64 V 112 L 294.4,275.2 c -22.8,17.1 -54,17.1 -76.8,0 z"
     id="path1"
     style="fill:#dc8add" />
</svg>
